<svg xmlns="http://www.w3.org/2000/svg" viewBox="0 0 20 20" fill="currentColor" role="img" aria-label="dolphin">
  <path d="M2.5 11.5c0-.6.3-1.2.8-1.6 1.4-1 3.8-2.6 6.7-2.6.6-1.4 1.8-2.3 3.2-2.3 1 0 1.9.4 2.5 1.1.3-.2.8-.3 1.3-.3.5 0 1 .2 1 .5 0 .4-.4.5-.9.5-.4 0-.8.1-1 .3.5.7.7 1.6.7 2.5 0 .8-.2 1.5-.6 2.1.3.1.7.3.9.5.2.3.1.6-.3.6-.4 0-.9-.1-1.3-.3-.5.7-1.2 1.3-2.1 1.6.1.5.2 1 .2 1.5 0 .5-.2.9-.5.9-.3 0-.7-.3-.9-.8-.2-.5-.3-1-.3-1.4-.4.1-.8.1-1.2.1-2.4 0-4.4-1-5.7-2.2-.9-.8-1.5-1.7-1.5-2.5 0-.2.0-.3.1-.4Zm10.8-3.2a.8.8 0 100 1.6.8.8 0 000-1.6Z"/>
</svg>
